<?xml version="1.0" encoding="utf-8"?>
<!-- Generator: Adobe Illustrator 27.0.0, SVG Export Plug-In . SVG Version: 6.00 Build 0)  -->
<svg version="1.1" id="Calque_1" xmlns="http://www.w3.org/2000/svg" xmlns:xlink="http://www.w3.org/1999/xlink" x="0px" y="0px"
	 viewBox="0 0 173 94.8" style="enable-background:new 0 0 173 94.8;" xml:space="preserve">
<style type="text/css">
	.st0{fill:#FFFFFF;}
	.st1{fill:#DC153D;}
</style>
<g id="Calque_2_00000150099656142576613550000006181892953920587439_">
	<g id="Calque_1-2">
		<path class="st0" d="M72.5,5c0.8,0,1.7,0,2.5-0.1v0.7c-1.1,0.2-2,1.2-2.7,2.9l-7.9,20.3H64L55.8,7.7c-0.5-1.4-1.3-2.1-2.3-2.1V4.9
			C54.4,5,55.6,5,57.1,5c1.9,0,3.3,0,4.3-0.1v0.7c-0.6,0-1.2,0.1-1.8,0.3C59.2,6,59,6.4,59,6.8c0,0.5,0.2,1.1,0.4,1.6l6.1,16.1
			l5.5-14.2c0.4-0.9,0.6-1.8,0.7-2.7c0.1-0.6-0.2-1.2-0.7-1.5c-0.7-0.4-1.4-0.5-2.2-0.5V4.9C70,5,71.2,5,72.5,5z"/>
		<path class="st0" d="M80.7,27c0.2,0.3,0.4,0.6,0.8,0.7c0.5,0.2,1,0.2,1.5,0.2v0.7c-2-0.1-3.4-0.1-4.1-0.1s-2,0-4.1,0.1v-0.7
			c0.5,0,1-0.1,1.5-0.2c0.4-0.1,0.6-0.4,0.8-0.7c0.2-0.5,0.3-1,0.3-1.5V15c0.1-0.8-0.1-1.6-0.6-2.3c-0.5-0.5-1.3-0.8-2-0.7v-0.7
			c0.7,0.1,1.4,0.1,2.1,0.1c1.2,0,2.4-0.1,3.5-0.4v14.5C80.4,26,80.5,26.5,80.7,27z M79.7,3.3c0.3,0.2,0.6,0.5,0.8,0.8
			c0.2,0.3,0.3,0.7,0.3,1.1c0,0.4-0.1,0.8-0.3,1.1c-0.2,0.3-0.5,0.6-0.8,0.8c-0.7,0.4-1.5,0.4-2.1,0c-0.3-0.2-0.6-0.5-0.8-0.8
			c-0.2-0.3-0.3-0.7-0.3-1.1c0-0.4,0.1-0.7,0.3-1.1c0.2-0.3,0.5-0.6,0.8-0.8C78.3,2.9,79.1,2.9,79.7,3.3z"/>
		<path class="st0" d="M90.2,27c0.2,0.3,0.4,0.6,0.8,0.7c0.5,0.2,1,0.2,1.5,0.2v0.7c-2.1-0.1-3.4-0.1-4.1-0.1s-2,0-4.1,0.1v-0.7
			c0.5,0,1-0.1,1.5-0.2c0.4-0.1,0.6-0.4,0.8-0.7c0.2-0.5,0.3-1,0.3-1.5V6.4c0.1-0.8-0.1-1.6-0.6-2.2c-0.5-0.5-1.3-0.8-2-0.7V2.7
			c0.7,0.1,1.4,0.1,2.1,0.1c1.2,0,2.4-0.1,3.5-0.5v23.2C90,26,90,26.5,90.2,27z"/>
		<path class="st0" d="M99.8,27c0.2,0.3,0.5,0.6,0.8,0.7c0.5,0.2,1,0.2,1.5,0.2v0.7c-2-0.1-3.4-0.1-4.1-0.1s-2,0-4,0.1v-0.7
			c0.5,0,1-0.1,1.5-0.2c0.4-0.1,0.6-0.4,0.8-0.7c0.2-0.5,0.3-1,0.3-1.5V6.4c0.1-0.8-0.2-1.6-0.6-2.2c-0.5-0.5-1.3-0.8-2-0.7V2.7
			c0.7,0.1,1.4,0.1,2.1,0.1c1.2,0,2.4-0.1,3.5-0.5v23.2C99.5,26,99.6,26.5,99.8,27z"/>
		<path class="st0" d="M112.8,12.3c-0.7-0.5-1.5-0.8-2.3-0.7c-1.2-0.1-2.5,0.3-3.3,1.2c0.4,0.1,0.8,0.4,1.1,0.7
			c0.3,0.4,0.5,0.8,0.4,1.3c0,0.5-0.2,1-0.5,1.3c-0.4,0.3-0.9,0.5-1.4,0.5c-0.5,0-1-0.2-1.3-0.6c-0.3-0.4-0.5-1-0.5-1.5
			c0.1-1,0.7-1.9,1.6-2.4c0.6-0.4,1.3-0.7,2-0.9c0.9-0.3,1.8-0.4,2.7-0.4c0.8,0,1.6,0.1,2.4,0.3c0.6,0.2,1.2,0.5,1.6,0.9
			c0.5,0.5,0.8,1.1,1,1.8c0.2,0.9,0.3,1.9,0.3,2.9v9.3c0,0.4,0.1,0.8,0.2,1.2c0.2,0.3,0.5,0.4,0.8,0.4c0.3,0,0.5-0.1,0.8-0.2
			c0.3-0.1,0.5-0.3,0.8-0.5l0.4,0.6c-0.4,0.3-0.7,0.5-1,0.7c-0.3,0.2-0.6,0.3-0.9,0.4c-0.4,0.1-0.8,0.2-1.2,0.1
			c-0.8,0.1-1.7-0.2-2.2-0.8c-0.4-0.6-0.7-1.4-0.6-2.2c-0.5,1-1.4,1.8-2.4,2.3c-0.9,0.4-1.8,0.7-2.8,0.7c-0.7,0-1.4-0.1-2.1-0.4
			c-0.6-0.3-1.2-0.7-1.6-1.2c-0.4-0.6-0.6-1.4-0.6-2.1c0-0.8,0.2-1.5,0.6-2.2c0.5-0.6,1.1-1.2,1.8-1.6c1-0.6,2-1.1,3-1.5l1.6-0.6
			c0.7-0.2,1.3-0.6,1.8-1c0.3-0.3,0.5-0.7,0.6-1.1v-2.1C113.6,14,113.4,13,112.8,12.3z M112.8,19.1c-0.4,0.2-1.2,0.6-2.4,1.2
			c-0.6,0.3-1.1,0.6-1.6,0.9c-0.5,0.4-0.9,0.8-1.2,1.3c-0.3,0.6-0.5,1.3-0.5,2c-0.1,0.8,0.2,1.6,0.7,2.2c0.5,0.5,1.3,0.8,2,0.7
			c1.5,0,2.7-0.8,3.8-2.5v-6.6C113.4,18.7,113.1,18.9,112.8,19.1L112.8,19.1z"/>
		<path class="st0" d="M75,55.9v0.7c-0.9-0.1-2.1-0.1-3.6-0.1c-1.9,0-3.3,0-4.3,0.1v-0.7c0.6,0,1.3-0.1,1.9-0.3
			c0.4-0.2,0.6-0.5,0.5-0.9c0-0.5-0.2-1.1-0.4-1.6l-2.1-5.5H59l-1.4,3.5C57.2,52,57,53,56.9,53.9c-0.1,0.6,0.2,1.2,0.7,1.5
			c0.7,0.4,1.4,0.5,2.2,0.5v0.7c-1.3-0.1-2.6-0.1-3.9-0.1c-1,0-1.8,0-2.5,0.1v-0.7c1.1-0.2,2-1.2,2.6-2.9L64,32.7h0.5l8.2,21.1
			C73.2,55.2,74,55.9,75,55.9z M63,36.9L59.2,47h7.6L63,36.9z"/>
		<path class="st0" d="M90.6,55.2c0.5,0.5,1.3,0.8,2,0.7v0.7c-0.7-0.1-1.4-0.1-2.1-0.1c-1.2,0-2.3,0.1-3.5,0.5v-4
			c-0.4,1.2-1.2,2.3-2.3,3c-0.9,0.7-2.1,1-3.2,1c-1.3,0.1-2.5-0.3-3.5-1.2c-0.4-0.5-0.7-1.1-0.9-1.7c-0.2-0.9-0.3-1.8-0.2-2.7V43
			c0.1-0.8-0.1-1.6-0.6-2.2c-0.5-0.5-1.3-0.8-2-0.7v-0.7c0.7,0.1,1.4,0.1,2.1,0.1c1.2,0,2.4-0.1,3.5-0.4v13.2c0,0.7,0,1.4,0.1,2.1
			c0.1,0.5,0.3,0.9,0.7,1.3c0.5,0.4,1.1,0.5,1.7,0.5c0.8,0,1.7-0.3,2.3-0.8c0.7-0.6,1.3-1.3,1.6-2.2c0.4-1,0.6-2,0.6-3.1V43
			c0.1-0.8-0.1-1.6-0.6-2.2c-0.5-0.5-1.3-0.8-2-0.7v-0.7c0.7,0.1,1.4,0.1,2.1,0.1c1.2,0,2.4-0.1,3.5-0.4v14
			C89.9,53.8,90.1,54.6,90.6,55.2z"/>
		<path class="st0" d="M109,53.7c0.7,0.6,1.1,1.4,1,2.3c0,1.1-0.4,2.2-1,3.2c-0.8,1.1-1.9,2.1-3.2,2.6c-1.6,0.7-3.4,1.1-5.2,1
			c-1.1,0-2.2-0.1-3.3-0.4c-0.9-0.2-1.7-0.5-2.5-1c-0.6-0.3-1-1-1-1.7c0.1-0.9,0.5-1.7,1.2-2.2c0.9-0.8,1.9-1.4,3-1.9H98
			c-0.8,0-1.6-0.2-2.3-0.5c-0.7-0.4-1.1-1.2-1-2c0-0.8,0.3-1.6,0.9-2.2c0.9-0.9,2-1.5,3.2-2c-0.9-0.3-1.7-1-2.3-1.8
			c-0.6-0.9-0.9-1.9-0.8-3c-0.1-1.5,0.5-3,1.7-4c1.3-0.9,2.9-1.4,4.5-1.3c0.8,0,1.6,0.1,2.4,0.3c0.2-1.1,0.6-2.1,1.2-3
			c0.5-0.7,1.4-1.1,2.3-1.1c0.9-0.1,1.7,0.6,1.8,1.5c0,0.1,0,0.2,0,0.2c0,0.9-0.7,1.6-1.5,1.6c0,0,0,0-0.1,0c-0.5,0-0.9-0.2-1.2-0.5
			c-0.3-0.5-0.5-1-0.6-1.6c-0.4,0.5-0.7,1-0.9,1.6c-0.1,0.5-0.3,0.9-0.3,1.4c1,0.3,1.8,0.9,2.4,1.8c1.1,1.9,1.1,4.1,0,6
			c-0.5,0.8-1.3,1.4-2.2,1.8c-1,0.4-2.1,0.6-3.2,0.6c-0.8,0-1.7-0.1-2.5-0.3c-0.7,0.4-1.4,0.8-2.1,1.3c-0.4,0.3-0.7,0.8-0.7,1.3
			c0,0.3,0.1,0.6,0.4,0.8c0.4,0.2,0.8,0.3,1.2,0.3h7.9C107.1,52.9,108.1,53.1,109,53.7z M97.3,57.2c-0.4,0.6-0.6,1.2-0.6,1.9
			c0,0.7,0.2,1.3,0.7,1.8c0.5,0.5,1.2,0.9,1.8,1.1c0.8,0.2,1.5,0.3,2.3,0.3c1,0,2-0.2,2.9-0.5c0.9-0.3,1.7-0.9,2.3-1.6
			c0.6-0.7,0.9-1.6,0.9-2.6c0-0.3-0.1-0.7-0.2-1c-0.2-0.3-0.5-0.5-0.8-0.6c-0.5-0.2-1-0.2-1.6-0.2h-6.2
			C98.3,56.1,97.7,56.6,97.3,57.2z M99.7,40.6c-0.6,1.1-0.9,2.4-0.8,3.6c-0.1,1.3,0.2,2.5,0.8,3.6c1.1,1.3,3,1.4,4.2,0.3
			c0.1-0.1,0.2-0.2,0.3-0.3c0.6-1.1,0.9-2.4,0.8-3.6c0.1-1.3-0.2-2.5-0.8-3.6c-1.1-1.3-3-1.4-4.2-0.3C99.9,40.3,99.7,40.4,99.7,40.6
			L99.7,40.6z"/>
		<path class="st0" d="M124.9,54.8c-0.6,0.7-1.3,1.3-2.2,1.7c-0.9,0.4-1.9,0.7-2.9,0.6c-1.5,0-2.9-0.3-4.1-1.1
			c-1.2-0.7-2.1-1.8-2.7-3.1c-0.6-1.4-0.9-3-0.9-4.5c0-1.7,0.3-3.5,0.9-5.1c0.5-1.3,1.5-2.5,2.6-3.3c1.2-0.8,2.6-1.2,4-1.2
			c1.7-0.1,3.4,0.6,4.6,1.8c1.1,1.2,1.6,3.1,1.6,5.5h-10.4c-0.1,0.7-0.1,1.4-0.1,2.2c0,1.3,0.2,2.6,0.7,3.9c0.4,1,1.1,1.9,1.9,2.5
			c0.7,0.6,1.6,0.9,2.5,0.9c2.2,0,4.2-1.3,4.9-3.3l0.7,0.3C125.9,53.4,125.5,54.1,124.9,54.8z M122.5,42.6c-0.2-0.8-0.5-1.6-1.1-2.2
			c-0.5-0.5-1.1-0.8-1.8-0.8c-0.7,0-1.4,0.2-1.9,0.7c-0.6,0.5-1.2,1.2-1.5,2c-0.4,1.1-0.7,2.2-0.8,3.4h7.3
			C122.9,44.6,122.8,43.6,122.5,42.6z"/>
		<path class="st0" d="M141.2,39.5c1,0,1.8,0,2.5-0.1V40c-0.5,0.1-0.9,0.3-1.2,0.6c-0.4,0.5-0.8,1.1-1,1.8l-5.5,14.4h-0.6l-6.2-14.8
			c-0.2-0.6-0.5-1.1-1-1.5c-0.3-0.2-0.6-0.4-1-0.4v-0.7c1.2,0.1,2.1,0.1,3,0.1c1.7,0,3.2,0,4.4-0.1V40c-0.4,0-0.9,0-1.3,0.1
			c-0.3,0-0.5,0.1-0.8,0.3c-0.2,0.2-0.3,0.5-0.3,0.8c0,0.5,0.2,1,0.4,1.5l4.1,10.2l3.7-9.7c0.2-0.5,0.3-1,0.4-1.6
			c0-0.5-0.2-0.9-0.6-1.1c-0.6-0.3-1.2-0.5-1.9-0.5v-0.7C139.6,39.4,140.5,39.5,141.2,39.5z"/>
		<path class="st0" d="M153.6,40.3c-0.7-0.5-1.5-0.8-2.3-0.7c-1.2-0.1-2.5,0.3-3.3,1.2c0.4,0.1,0.8,0.4,1.1,0.7
			c0.3,0.4,0.5,0.8,0.4,1.3c0,0.5-0.2,1-0.5,1.3c-0.4,0.3-0.9,0.5-1.4,0.5c-0.5,0-1-0.2-1.3-0.6c-0.3-0.4-0.5-1-0.5-1.5
			c0.1-1,0.7-1.9,1.6-2.4c0.6-0.4,1.3-0.7,2-0.9c0.9-0.2,1.8-0.4,2.7-0.4c0.8,0,1.6,0.1,2.4,0.3c0.6,0.2,1.2,0.5,1.6,0.9
			c0.5,0.5,0.9,1.1,1.1,1.9c0.2,0.9,0.3,1.9,0.3,2.9v9.3c0,0.4,0,0.8,0.2,1.2c0.2,0.3,0.5,0.4,0.8,0.4c0.3,0,0.5-0.1,0.8-0.2
			c0.3-0.1,0.5-0.3,0.8-0.5l0.4,0.6c-0.4,0.3-0.7,0.5-1,0.7c-0.3,0.2-0.6,0.3-0.9,0.4c-0.4,0.1-0.8,0.1-1.2,0.1
			c-0.8,0.1-1.7-0.2-2.2-0.9c-0.4-0.6-0.7-1.4-0.6-2.2c-0.5,1-1.4,1.8-2.4,2.3c-0.9,0.4-1.8,0.7-2.8,0.7c-0.7,0-1.5-0.1-2.1-0.4
			c-0.6-0.2-1.2-0.7-1.5-1.2c-0.4-0.6-0.6-1.4-0.6-2.1c0-0.8,0.2-1.5,0.6-2.2c0.5-0.6,1.1-1.2,1.8-1.6c1-0.6,2-1.1,3-1.5l1.6-0.7
			c0.7-0.2,1.3-0.6,1.8-1c0.3-0.3,0.6-0.7,0.6-1.2v-2.1C154.5,41.3,154.2,40.8,153.6,40.3z M153.6,47.1c-0.4,0.2-1.2,0.6-2.4,1.2
			c-0.6,0.3-1.1,0.6-1.6,0.9c-0.5,0.3-0.9,0.8-1.1,1.3c-0.3,0.6-0.5,1.3-0.5,2c-0.1,0.8,0.2,1.6,0.7,2.2c0.5,0.5,1.2,0.8,1.9,0.7
			c1.5,0,2.7-0.8,3.8-2.5v-6.6C154.2,46.7,153.9,46.9,153.6,47.1L153.6,47.1z"/>
		<path class="st0" d="M166.9,55c0.2,0.3,0.4,0.6,0.8,0.7c0.5,0.2,1,0.2,1.5,0.2v0.7c-2.1-0.1-3.4-0.1-4.1-0.1s-2,0-4.1,0.1V56
			c0.5,0,1-0.1,1.5-0.2c0.4-0.1,0.6-0.4,0.8-0.7c0.2-0.5,0.3-1,0.2-1.5V34.3c0.1-0.8-0.1-1.6-0.6-2.2c-0.5-0.5-1.3-0.8-2-0.7v-0.7
			c0.7,0.1,1.4,0.1,2.1,0.1c1.2,0,2.4-0.1,3.5-0.5v23.2C166.6,54,166.7,54.5,166.9,55z"/>
		<path class="st1" d="M59.1,87.4L42.8,41.6c0.8-1.6,1.5-3.1,2.1-4.3C57.5,11.1,42.9,0,32.7,0C23.5,0,17,6.3,17,14
			s3.5,10.1,5.9,10.1c1.2,0,2.4-0.7,2.4-3.4c0-2.3-2.4-5.2-4.5-6c-0.6-0.3-1-1-0.8-1.7c0.5-3.1,2.9-10.2,12.8-10.2
			c13.2,0,18.8,14.5,10,32.7L41.5,38L35,19.8c-0.2-0.6-0.9-1-1.6-0.7c-0.3,0.1-0.5,0.3-0.7,0.6c-2,4-5.9,12.1-9.8,20.2l1.3,3.7
			c2.2-4.6,3.9-8,4.9-10.1c0.3-0.6,1-0.9,1.6-0.6c0.3,0.1,0.5,0.4,0.6,0.7l18.8,52.8c0.2,0.6-0.1,1.3-0.7,1.6
			c-0.1,0-0.3,0.1-0.4,0.1h-2.3c-0.7-0.1-1.4,0.5-1.5,1.2s0.5,1.4,1.2,1.5c0.1,0,0.2,0,0.2,0h10c1.4,0,2.5-1.1,2.5-2.4
			C59.3,87.9,59.2,87.7,59.1,87.4z"/>
		<path class="st1" d="M36.3,70.8c-1.2,0-2.4,0.7-2.4,3.4c0,2.3,2.4,5.2,4.5,6c0.7,0.3,1,1,0.9,1.7c-0.5,3.2-2.8,10.3-12.8,10.3
			c-13.2,0-18.9-14.5-10-32.6l1.2-2.5L24.3,75c0.2,0.6,0.9,1,1.6,0.7c0.3-0.1,0.5-0.3,0.7-0.6c1.9-4,5.9-12.1,9.8-20.1L35,51.2
			c-2.2,4.6-3.9,8-4.9,10.1c-0.3,0.6-1,0.9-1.6,0.6c-0.3-0.1-0.5-0.4-0.6-0.7L9,8.5C8.8,7.8,9.1,7.1,9.8,6.9c0.1,0,0.3-0.1,0.4-0.1
			h2.3c0.7-0.1,1.3-0.7,1.2-1.5c-0.1-0.6-0.6-1.2-1.2-1.2h-10C1.1,4.2,0,5.3,0,6.6c0,0.3,0,0.6,0.1,0.8l16.4,45.8l-2.1,4.3
			c-12.6,26.2,2,37.3,12.1,37.3c9.2,0,15.7-6.3,15.7-14S38.8,70.8,36.3,70.8z"/>
	</g>
</g>
<g>
	<path class="st1" d="M62.7,71.4h0.8v5.8h-0.8v-2.6h-3v2.6h-0.8v-5.8h0.8V74h3V71.4z"/>
	<path class="st1" d="M67.6,77.2c-0.9,0-1.6-0.3-2.2-0.8c-0.6-0.6-0.9-1.3-0.9-2.1c0-0.9,0.3-1.6,0.9-2.1c0.6-0.6,1.3-0.8,2.2-0.8
		s1.6,0.3,2.2,0.8c0.6,0.6,0.9,1.3,0.9,2.1c0,0.9-0.3,1.6-0.9,2.1C69.2,77,68.4,77.2,67.6,77.2z M69.2,75.9c0.4-0.4,0.6-1,0.6-1.6
		c0-0.7-0.2-1.2-0.6-1.6c-0.4-0.4-1-0.6-1.6-0.6s-1.2,0.2-1.6,0.6c-0.4,0.4-0.6,1-0.6,1.6c0,0.7,0.2,1.2,0.6,1.6
		c0.4,0.4,1,0.6,1.6,0.6S68.8,76.4,69.2,75.9z M68.8,70.4V71l-1.2-0.7L66.4,71v-0.6l1.2-0.7L68.8,70.4z"/>
	<path class="st1" d="M71.3,72v-0.6h3.9V72h-1.6v5.2h-0.8V72H71.3z"/>
	<path class="st1" d="M79.5,71.4V72h-2.4v2h2.1v0.6h-2.1v2h2.4v0.6h-3.2v-5.8H79.5z"/>
	<path class="st1" d="M80.7,71.4h0.8v5.2h2.1v0.6h-2.9V71.4z"/>
	<path class="st1" d="M89.5,76.9c-0.3,0.2-0.7,0.3-1.1,0.3s-0.8-0.2-1.2-0.5c-0.3-0.3-0.5-0.7-0.5-1.2s0.2-0.9,0.5-1.2
		s0.7-0.5,1.2-0.5c0.1,0,0.1,0,0.2,0.1l-0.3-0.2c-0.4-0.5-0.6-0.9-0.6-1.3c0-0.4,0.1-0.7,0.4-1s0.7-0.4,1.1-0.4
		c0.5,0,0.9,0.1,1.1,0.4c0.3,0.3,0.4,0.6,0.4,0.9c0,0.1,0,0.2-0.1,0.4h-0.8c0-0.1,0.1-0.2,0.1-0.4c0-0.2-0.1-0.3-0.2-0.5
		c-0.1-0.1-0.3-0.2-0.5-0.2c-0.2,0-0.4,0.1-0.5,0.2c-0.1,0.1-0.2,0.3-0.2,0.5c0,0.2,0.1,0.5,0.4,0.8l3.1,3.9h-1L90.1,76
		C90,76.4,89.8,76.7,89.5,76.9z M87.7,76.3c0.2,0.2,0.4,0.3,0.7,0.3s0.5-0.1,0.7-0.3c0.2-0.2,0.3-0.5,0.3-0.8s-0.1-0.6-0.3-0.8
		s-0.5-0.3-0.7-0.3s-0.5,0.1-0.7,0.3c-0.2,0.2-0.3,0.5-0.3,0.8S87.5,76.1,87.7,76.3z"/>
	<path class="st1" d="M96,73c0,0.2,0.1,0.4,0.2,0.5c0.1,0.1,0.3,0.2,0.5,0.3c0.2,0.1,0.4,0.1,0.6,0.2c0.2,0.1,0.5,0.1,0.7,0.2
		c0.2,0.1,0.4,0.1,0.6,0.2c0.2,0.1,0.3,0.2,0.5,0.4c0.1,0.2,0.2,0.4,0.2,0.7c0,0.5-0.2,0.8-0.5,1.2s-0.8,0.5-1.4,0.5
		c-0.6,0-1.1-0.1-1.5-0.4s-0.6-0.6-0.6-1.1H96c0,0.3,0.1,0.5,0.3,0.6s0.5,0.2,0.9,0.2c0.4,0,0.7-0.1,0.9-0.3s0.3-0.4,0.3-0.7
		s-0.1-0.4-0.2-0.6s-0.3-0.2-0.5-0.3c-0.2-0.1-0.4-0.1-0.6-0.2s-0.5-0.1-0.7-0.2s-0.4-0.2-0.6-0.3c-0.2-0.1-0.3-0.3-0.5-0.5
		c-0.1-0.2-0.2-0.5-0.2-0.8c0-0.5,0.2-0.9,0.5-1.2s0.8-0.4,1.4-0.4c0.6,0,1,0.1,1.4,0.4c0.3,0.3,0.5,0.6,0.6,1.1h-0.9
		c0-0.2-0.1-0.4-0.3-0.6c-0.2-0.2-0.5-0.2-0.8-0.2s-0.6,0.1-0.8,0.2C96.1,72.4,96,72.6,96,73z"/>
	<path class="st1" d="M103.9,71.9c0.4,0.3,0.5,0.7,0.5,1.2s-0.2,0.9-0.5,1.2s-0.9,0.5-1.6,0.5h-1.2v2.4h-0.8v-5.8h1.9
		C103,71.4,103.5,71.6,103.9,71.9z M101.2,74.2h1.2c0.4,0,0.8-0.1,1-0.3c0.2-0.2,0.3-0.5,0.3-0.8c0-0.7-0.4-1.1-1.3-1.1h-1.2V74.2z"
		/>
	<path class="st1" d="M109.5,77.2l-0.5-1.3h-2.7l-0.5,1.3h-0.8l2.2-5.8h0.9l2.2,5.8H109.5z M106.6,75.3h2.2l-1.1-3L106.6,75.3z"/>
	<path class="st1" d="M114.1,74.5v-0.6h3.4v0.6H114.1z"/>
	<path class="st1" d="M123.5,71.4c1,0,1.7,0.3,2.3,0.8c0.6,0.5,0.8,1.2,0.8,2.1s-0.3,1.6-0.8,2.1c-0.6,0.5-1.3,0.8-2.3,0.8h-1.9
		v-5.8H123.5z M122.4,76.6h1.1c0.8,0,1.3-0.2,1.7-0.6s0.6-1,0.6-1.7c0-0.7-0.2-1.3-0.6-1.7c-0.4-0.4-1-0.6-1.7-0.6h-1.1V76.6z"/>
	<path class="st1" d="M130.8,71.4V72h-2.4v2h2.1v0.6h-2.1v2h2.4v0.6h-3.2v-5.8H130.8z"/>
	<path class="st1" d="M136.1,77.2l-0.5-1.3H133l-0.5,1.3h-0.8l2.2-5.8h0.9l2.2,5.8H136.1z M133.2,75.3h2.2l-1.1-3L133.2,75.3z"/>
	<path class="st1" d="M138,75.2v-3.7h0.8v3.7c0,0.5,0.1,0.8,0.4,1.1c0.3,0.2,0.6,0.4,1.1,0.4s0.8-0.1,1.1-0.4
		c0.3-0.2,0.4-0.6,0.4-1.1v-3.7h0.8v3.7c0,0.7-0.2,1.2-0.6,1.5c-0.4,0.4-1,0.5-1.6,0.5c-0.7,0-1.2-0.2-1.6-0.5
		C138.2,76.4,138,75.8,138,75.2z"/>
	<path class="st1" d="M145.7,77.2l-2.3-5.8h0.8l1.9,5l1.9-5h0.8l-2.3,5.8H145.7z"/>
	<path class="st1" d="M149.7,77.2v-5.8h0.8v5.8H149.7z"/>
	<path class="st1" d="M151.8,71.4h0.8v5.2h2.1v0.6h-2.9V71.4z"/>
	<path class="st1" d="M155.5,71.4h0.8v5.2h2.1v0.6h-2.9V71.4z"/>
	<path class="st1" d="M162.3,71.4V72H160v2h2.1v0.6H160v2h2.4v0.6h-3.2v-5.8H162.3z"/>
</g>
</svg>
